# xmcd CD database file
#
# Track frame offsets:
#	150
#	21338
#	42241
#	69993
#
# Disc length: 4440 seconds
#
# Revision: 0
# Processed by: cddbd v1.5PL3 Copyright (c) Steve Scherf et al.
# Submitted via: CDex 1.51
#
DISCID=2d115604
DTITLE=ナチュラル　ハイ - LIFE
DYEAR=2003
DGENRE=
TTITLE0=LIFE
TTITLE1=夏の夜空
TTITLE2=LIFE(piano session KW001)
TTITLE3=dummy data
EXTD=YEAR: 2003/08/20
EXTT0=
EXTT1=
EXTT2=
EXTT3=
PLAYORDER=
